<?xml version="1.0" encoding="utf-8"?>
<!-- Generator: Adobe Illustrator 26.3.1, SVG Export Plug-In . SVG Version: 6.00 Build 0)  -->
<svg version="1.1"
	 id="svg8" xmlns:inkscape="http://www.inkscape.org/namespaces/inkscape" xmlns:sodipodi="http://sodipodi.sourceforge.net/DTD/sodipodi-0.dtd" xmlns:svg="http://www.w3.org/2000/svg" inkscape:version="1.0 (4035a4fb49, 2020-05-01)" xmlns:rdf="http://www.w3.org/1999/02/22-rdf-syntax-ns#" xmlns:cc="http://creativecommons.org/ns#" xmlns:dc="http://purl.org/dc/elements/1.1/"
	 xmlns="http://www.w3.org/2000/svg" xmlns:xlink="http://www.w3.org/1999/xlink" x="0px" y="0px" viewBox="0 0 313.5 501.7"
	 style="enable-background:new 0 0 313.5 501.7;" xml:space="preserve">
<style type="text/css">
	.st0{fill:#C2A363;stroke:#000000;stroke-width:5;stroke-miterlimit:10;}
	.st1{fill:#D92026;stroke:#000000;stroke-width:5;stroke-miterlimit:10;}
	.st2{fill:#1F61AF;stroke:#000000;stroke-width:5;stroke-miterlimit:10;}
	.st3{fill:#FCC916;}
	.st4{fill:#FFFFFF;stroke:#000000;stroke-miterlimit:10;}
	.st5{fill:#04865A;stroke:#000000;stroke-miterlimit:10;}
	.st6{fill:#AF9A89;stroke:#000000;stroke-width:5;stroke-miterlimit:10;}
	.st7{fill:#E7E8EA;stroke:#000000;stroke-width:5;stroke-miterlimit:10;}
	.st8{fill:none;stroke:#000000;stroke-width:3;stroke-miterlimit:10;}
	.st9{fill:none;stroke:#000000;stroke-width:5;stroke-miterlimit:10;}
	.st10{fill:#000002;}
	.st11{fill:#AF9A89;}
	.st12{fill:#FFFFFF;}
</style>
<path class="st0" d="M4.1,110.8h303.7v209c-0.4,15.2-2.8,37.1-12.1,61.4c-18.2,47.3-68.5,117.9-140.3,116.8
	C93,497,52.4,442.4,42.1,428.6C9.5,384.8,6,338.5,5.6,320.1L4.1,110.8z"/>
<path class="st1" d="M307.9,108.9l-13.1-31.7l-68.5,5.9c-1-4.3-2.6-8.4-4.7-12.4l47.2-25.8l-30.1-20.9l-29.6,30.5
	c-2.9-2.7-6.1-5.1-9.5-7.3l19.9-32.6l-31-9.3l-10.1,32.6c-3.4-0.9-6.9-1.6-10.6-2.1L173.2,3h-33l5.5,32.8c-3.5,0.5-7,1.2-10.4,2.1
	L124.8,4.9l-31.5,9.8L114,47.1c-3.2,2.1-6.3,4.4-9,6.9L75.1,23.3L45.4,46l46.4,24.9c-2,3.8-3.5,7.8-4.5,11.9l-68-6.8L4.2,105.9v4.8
	h303.5L307.9,108.9z"/>
<path class="st2" d="M46.6,151.3h215.3v159.5c-0.3,11.6-2,28.3-8.6,46.8c-12.9,36.1-48.6,89.9-99.5,89.1
	c-44.3-0.8-73.1-42.4-80.3-52.9C50.4,360.3,48,325,47.7,311L46.6,151.3z"/>
<polygon class="st3" points="46.6,151.3 251.4,151.3 70.5,392.9 55.4,356.8 47.8,314.8 "/>
<g>
	<g>
		<path d="M14.1,183.6h21.6v-6.1h4.4v16.5h-4.4v-6.1H14.1V183.6z"/>
	</g>
	<g>
		<g>
			<path d="M299.5,176.4v4.7l-5.9,1.9v8.6l5.9,1.8v4.6l-26-8.4V185L299.5,176.4z M289.2,184.4l-9.7,3l9.7,2.9V184.4z"/>
		</g>
	</g>
	<g>
		<path d="M14.1,270.1h26v14.7h-4.4v-10.7h-5.8v9.9h-4.4v-9.9h-7.1v11h-4.4V270.1z"/>
	</g>
	<g>
		<path d="M39.3,318.7c0.5,1.7,1,3.9,1.3,6.1c0.4,3.1,0.4,5.9-0.9,8c-1.2,1.9-2.8,2.7-4.9,3c-2.7,0.3-5.3-0.9-6.9-3.7l-0.1,0
			c-0.4,2.1-1.9,3.3-4.5,4.2c-2.7,0.9-5.7,2.1-6.6,2.7l-0.8-5.9c0.6-0.5,3.1-1.4,5.8-2.2c3.1-0.9,3.8-1.9,3.6-3.8l-0.1-0.8l-10,1.3
			l-0.7-5.6L39.3,318.7z M29,325.8l0.1,1c0.3,2.5,2.2,3.6,4.4,3.3c2.2-0.3,3.5-1.5,3.3-4c-0.1-0.5-0.2-1.1-0.3-1.3L29,325.8z"/>
	</g>
	<g>
		<path d="M48.5,366.6c0.9,1.6,1.9,3.6,2.7,5.6c1.1,2.9,1.7,5.7,1,8c-0.7,2.2-2.1,3.3-4.1,4.1c-2.5,1-5.4,0.4-7.5-1.9l-0.1,0
			c0.1,2.1-1.1,3.6-3.4,5.1c-2.4,1.5-5.1,3.4-5.8,4.2l-2.1-5.5c0.5-0.6,2.7-2.1,5.2-3.5c2.8-1.6,3.3-2.8,2.6-4.5l-0.3-0.8l-9.5,3.6
			l-2-5.3L48.5,366.6z M40.2,375.8l0.4,1c0.9,2.3,3,3,5.1,2.2c2-0.8,3.1-2.2,2.3-4.6c-0.2-0.5-0.4-1-0.6-1.2L40.2,375.8z"/>
	</g>
	<g>
		<path d="M57.3,424.9l-5.2,2.8l-3.6-4.2L72,411.9l4.4,5.2l-15.7,20.8l-3.6-4.2l3.6-4.7L57.3,424.9z M63.3,426.1l3.4-4.2
			c1-1.2,2.7-3.2,3.8-4.5l-0.1-0.1c-1.5,0.9-3.8,2.2-5.1,2.9l-4.7,2.6L63.3,426.1z"/>
	</g>
	<g>
		<path d="M278.5,385.9l5,3.2l-1.9,5.2L260,379.4l2.4-6.4l25.8,3.6l-1.9,5.2l-5.9-0.9L278.5,385.9z M276.6,380.1l-5.3-0.9
			c-1.5-0.3-4.1-0.8-5.7-1.1l0,0.1c1.5,0.9,3.8,2.2,5,3l4.6,2.9L276.6,380.1z"/>
	</g>
	<g>
		<path d="M271.7,337.7l0.5-5.7l21.1,2l0.7-7.4l4.2,0.4l-1.3,13.1L271.7,337.7z"/>
	</g>
	<g>
		<path d="M253.1,422.9l3.5-1.9c1.9,2.2,2.9,4.2,3.2,6.1c0.3,1.9-0.2,3.6-1.5,5.2c-1.5,2-3.7,2.9-6.6,2.7c-2.8-0.2-5.9-1.5-9.1-4
			c-3.4-2.6-5.5-5.3-6.4-8.1s-0.5-5.2,1.1-7.2c1.4-1.8,3.3-2.7,5.7-2.7c1.4,0,3,0.5,4.9,1.4l-1.4,3.7c-1.2-0.6-2.3-0.9-3.4-0.9
			c-1,0.1-1.9,0.5-2.5,1.3c-0.9,1.1-1,2.4-0.5,4c0.5,1.5,2,3.2,4.5,5.1c2.6,2,4.7,3.1,6.3,3.3c1.6,0.2,2.9-0.3,3.7-1.4
			c0.6-0.8,0.8-1.8,0.6-2.9C255.2,425.6,254.4,424.4,253.1,422.9z"/>
	</g>
	<g>
		<path d="M13.8,228.9h26v5.1h-26V228.9z"/>
	</g>
	<g>
		<path d="M273.4,285h26v5.1h-26V285z"/>
	</g>
	<g>
		<path d="M273.5,247.9v-7.5c0-1.7,0.2-3,0.5-3.9c0.4-1.2,1.2-2.2,2.4-3c1.1-0.8,2.6-1.5,4.2-1.9c1.7-0.4,3.7-0.7,6.2-0.7
			c2.1,0,4,0.2,5.5,0.6c1.9,0.5,3.4,1.2,4.6,2.2c0.9,0.7,1.6,1.7,2.1,2.9c0.4,0.9,0.5,2.1,0.5,3.6v7.7H273.5z M277.9,243.8h17.2v-3
			c0-1.1-0.1-2-0.2-2.5c-0.2-0.7-0.6-1.2-1.1-1.6s-1.3-0.8-2.5-1.1c-1.2-0.3-2.8-0.4-4.8-0.4c-2,0-3.6,0.1-4.6,0.4
			c-1.1,0.3-1.9,0.7-2.5,1.2c-0.6,0.5-1,1.1-1.2,1.9c-0.2,0.6-0.2,1.7-0.2,3.4V243.8z"/>
	</g>
</g>
<path class="st4" d="M72.7,210.3c-1.4-4.5-0.8-6.5,0-7.5c0.4-0.5,1.3-1.2,2.2-2.7c0.7-1.1,0.5-1.4,1-1.9c1.1-1.3,3.3-1.2,5.2-1.2
	c1.2,0,3.4,0.2,5.7,1.5c1,0.6,2.2,1.3,3,2.6c1.4,2.2,1,4.7,0.8,6c-0.2,1.1-0.6,2.6-1.1,3.4C87.6,213.5,80.6,213.6,72.7,210.3z"/>
<path class="st5" d="M82.1,224.8c1.3-0.6,1.3-3.1,1.4-5.2c0-1.2-0.1-2.8-0.5-4.8c4.7-2.6,8.2-3.1,10.6-3.1c0.9,0,2,0.1,2.1-0.3
	c0.2-0.6-3-2.6-6.4-2.9c-2.4-0.2-4.3,0.6-5.3,1c0.2-1.3,0.6-5.4-1.8-7.7c-0.2-0.2-0.4-0.4-0.7-0.5c-0.6,0.7-1.8,2.1-2.3,4.2
	c-0.5,1.9-0.3,3.5-0.1,4.4c-0.9-0.4-2.8-1.2-5-0.7c-2.8,0.6-5,2.8-4.7,3.5c0.3,0.6,2.2-0.3,5.4,0.1c2.1,0.3,3.8,1,5,1.6
	c-0.3,9.5,1.1,10.4,1.6,10.5C81.7,225,82,224.8,82.1,224.8z"/>
<path class="st6" d="M157.6,258.8c-32.1,0-64.2,0-96.3,0c2-2.4,6.4-7.5,11.4-11.1c2.2-1.6,3.7-2.4,4.5-2.7c2.8-1.3,3.5-1,6.8-2.1
	c2.4-0.8,4.4-1.9,8.2-4c4.3-2.3,3.8-2.4,5.3-2.9c4.7-1.6,6.8,0.3,9.1-1.6c2.3-1.9,2-5.2,3.6-5.3c1.2-0.1,1.9,1.8,3.5,1.6
	c0.8-0.1,0.8-0.7,1.6-0.9c1.9-0.6,3.5,2.4,7.3,3.8c1.9,0.7,1.7,0,3.9,0.7c1.1,0.3,6,1.8,7.6,5.8c0.8,2,0.1,3,1.2,3.9
	c1.2,1,2.5,0,4.7,0.9c1.7,0.8,1.4,1.6,2.9,2.2c2.2,0.9,3.6-0.5,5.7,0.2c1.4,0.5,2,1.6,3.2,3.3C153.1,252.6,155,255.4,157.6,258.8z"
	/>
<path class="st7" d="M242.9,353.1v-20.5l-11.2,3.3c-1-4.4-2.7-8.6-5.1-12.3l9.9-6.9l-14.2-14.2l-5.4,10.5c-3.8-2.3-8-4-12.5-5
	l2.4-11.7h-20.7l3.3,11c-4.2,1-8.2,2.7-11.7,5l-6.3-9.1l-14.7,13.6l10.1,6.3c-2.2,3.5-3.8,7.5-4.8,11.6l-11.5-2v19.8l11.4-2.7
	c0.9,4.4,2.7,8.6,5,12.3l-10.1,5.6l13.9,14.6l6.5-9.7c3.5,2.3,7.4,4.1,11.6,5.1l-2.6,11.2H207l-3-11.6c4.3-0.9,8.3-2.5,11.9-4.7
	l6.3,10.3l14.8-14.6l-10.6-6.1c2.3-3.6,4.1-7.6,5.1-11.9L242.9,353.1z"/>
<g>
	<g>
		<path class="st8" d="M212.5,359c1.8-4.8-2.8-10.7-8.2-17.7c-1.5-1.9-0.5-0.4-7.8-8.7c-6.6-7.4-9.2-10.6-12.3-10.1
			c-1.2,0.2-2.3,1-2.9,1.9c-1.4,2.2-0.3,5.5,1.3,8.9c2.4,4.9,6.5,13.2,18.6,26.4c1.5,1.6,3.7,4,6.3,3.7
			C209.7,363.1,211.7,361.2,212.5,359z"/>
		<path class="st8" d="M212.7,325.1c-3.1-2.9-21.7,8.9-30,25.8c-1,1.9-4.5,9-2.4,10.8c1.9,1.7,7.5-1.9,10.5-3.8
			c15-9.5,23.3-23.7,22.5-31.5C213.1,326,213.1,325.5,212.7,325.1z"/>
		<path class="st8" d="M218.4,352.1c-4,6.7-34.9-8.5-40.6-11.3c-1.9-0.9-5.3-2.7-5.1-4.3c0.3-1.7,4.4-2.4,5.8-2.6
			c6.2-1,11.2,0.4,17.1,2.3c18.9,6,21.3,8.6,22.4,11.3C218.6,348.8,219.3,350.7,218.4,352.1z"/>
	</g>
	<circle cx="176.9" cy="341.2" r="4.2"/>
	<circle cx="206.5" cy="324.3" r="4.2"/>
	<circle cx="212.3" cy="361" r="4.2"/>
	<circle cx="196.8" cy="342.8" r="3.2"/>
</g>
<path class="st1" d="M73.5,393.7c1.4,2,3.6,5.2,6.6,9l181.8-239.8v-11.6h-10.5L71.8,391.2C72.4,392,72.9,392.9,73.5,393.7z"/>
<path class="st9" d="M46.6,151.3h215.3v159.5c-0.3,11.6-2,28.3-8.6,46.8c-12.9,36.1-48.6,89.9-99.5,89.1
	c-44.3-0.8-73.1-42.4-80.3-52.9C50.4,360.3,48,325,47.7,311L46.6,151.3z"/>
<path class="st10" d="M120.5,109.3c-0.6-2.4-0.8-5.2,0.1-8c0.1-0.2,0.1-0.3,0.2-0.5c-0.3,0.2-1,0.6-2,0.7c-0.7,0.1-1.2,0-1.6-0.1
	c1.5-4.3,3.1-8.7,4.9-13.2c0.4-1,0.8-1.9,1.2-2.9c-2,0.3-3.6-0.9-3.8-2.3c-0.1-1,0.9-2,1.3-2.5c0.6-0.7,1.2-1,1.3-1.1
	c2.3-1.4,5.1-5.7,5.5-6.3c2.6-4,3.6-8,4.1-10.3c-2-1.9-2.8-3.8-3.1-4.9c-0.4-1.3-0.9-2.9-0.1-3.8c0.7-0.8,2.2-0.7,3.2-0.6
	c1.6,0.2,2.5,0.8,3.9,1.4c1.6,0.7,2.8,0.9,5.2,1.3c3.5,0.5,6.5,0.1,10.3-0.4c8.6-1.3,12.8-2,13.6-2.1c6.7-0.8,12.1-0.8,14.8,1.7
	c1,1,1.4,1.9,1.5,2.3c0.9,2.5-0.5,4.9-0.9,5.5c7.8-1.3,14.8,0.3,17.4,4.5c1,1.6,1.6,4.1,1.7,4.3c1,4.2-0.2,8.9-0.2,8.9
	c-1.5-1.6-2.9-3.1-4.4-4.7c-1.2,0-3.1,0-5.5,0.4c-0.7,0.1-9.4,1.5-10.1,4.5c-0.1,0.3,0,0.4,0,0.5c0.5,1.6,6,1.1,7.3,0.9
	c2-0.2,4.9-0.7,8.3-2c-0.4,1.1-0.8,2.1-1.4,2.9c-4.9,7.7-16.8,7.5-18.7,7.5c-0.8,1.4-1.6,3.2-2.2,5.4c-1.1,4-0.9,7.5-0.6,9.7
	c-0.2,0-0.5,0-0.8,0c-0.7-0.2-1.1-0.6-1.3-0.8c0,1.3,0,2.6,0,3.9C153.3,109.1,136.9,109.2,120.5,109.3z"/>
<path class="st11" d="M130.3,55.4c7,2.9,12.6,3.2,16.3,3c5.4-0.3,16.9-2.3,20-2.8c0.4-0.1,3.2-0.6,6.9,0c2.4,0.4,4.6,0.7,5.5,2
	c1.4,2.1-0.6,6.7-5.1,11.1c-7.9,0-15.9,0-23.8,0c-1.4,0-14.4-0.6-18.6-9.3C131,58.3,130.6,57,130.3,55.4z"/>
<path class="st12" d="M157.8,70.1c0.8,0,1.6,0,2.4,0c0.4,1.9,2.1,3.2,4,3.3c2,0.1,3.7-1.3,4.3-3.2c0.8,0,1.6,0,2.4,0
	c-0.5,3.2-3.3,5.6-6.6,5.5C161.1,75.7,158.3,73.3,157.8,70.1z"/>
<g>
	<path class="st11" d="M173.3,76.5c0-0.9-0.2-1-0.1-2.1c0.1-2,0.7-3.7,1.3-4.7c-0.6,0.1-1.3,0.2-1.9,0.2c-1.1,4.5-4.3,7.7-7.9,8
		c-2.5,0.2-4.6-1.1-5.2-1.5c-3.2-2.1-4-5.6-4.1-6.3c-0.6-0.1-1,0-1.3,0.1c-1.2,0.5-1.9,2-1.8,3.8c0.1,0,0.3-0.1,0.5,0
		c0.5,0.1,0.7,0.6,0.7,0.7c-0.6,0.7-1.3,1.7-1.9,2.9c-1.2,2.4-1.4,4.6-1.4,5.9c0.3-0.2,0.6-0.3,0.9-0.5c2.9-1.8,4.7-4.3,5.9-6.4
		c0.2,0.2,0.4,0.6,0.5,1c0.5,2.4-3.2,5.1-3.7,5.5c-1,0.7-1.2,1-3.3,2c-0.6,0.3-1.3,0.8-2.1,1.5c-1.7,1.9-1.9,4.1-1.9,4.9
		c0.6-0.1,1.2-0.2,1.9-0.6c2.6-1.4,2.9-4.8,3-5.2c0.1,0.6,0.1,1.2,0.1,1.6c-0.5,3.7-5.1,5.5-5.5,5.7c-0.2-0.6-0.6-2.1-0.1-3.9
		c0.6-2.4,2.4-3.7,2.9-4c0.4-2.8,0.8-5.7,1.3-8.5c-0.6,0.9-1.9,2.6-4.1,3.5c-0.9,0.4-1.8,0.7-2.5,0.3c-1-0.7-0.8-3.2,0.4-6.3
		c-3.2,2.3-6.3,4.7-9.5,7c-0.2,1.6-0.8,4.2-2.6,6.7c-1.7,2.4-4.8,5-5.8,4.4c-0.5-0.3-0.9-1.8,2.1-8.9c-0.7,0.2-1.4,0.3-2.1,0.5
		c-0.1,0.4-0.2,0.9-0.3,1.3c-1.3,4.9-3,9.3-5,13.2c2.5-1,6.4-2.8,10.3-6.5c3.8-3.6,5.9-7.3,7-9.7c0.2,0.6,0.3,1.2,0.5,1.7
		c0.7-0.9,1.3-1.9,2-2.8c-0.1,0.5-0.2,0.9-0.3,1.4c-0.6,2.8-1.2,5.5-1.7,8.2c0.1-0.1,0.3-0.2,0.5-0.4c0.8-0.7,1-1.7,1-2
		c0.2-1,0.9-2.7,2.6-6.1c-1.4,6.5-2.7,9.8-3.9,9.7c-0.4,0-0.7-0.3-1.1-1c0,1.5,0,3.1,0,4.6c0.5-0.4,1-0.8,1.5-1.3
		c3.2-3.2,4.2-7.1,4.6-9.5c0,0.1,0.1,0.2,0.2,0.3c0.3,0.7,0.1,1.4,0,1.8c-0.3,0.9-0.8,2.5-1.6,4.4c-0.7,0.8-1.5,1.9-2.1,3.3
		c-1.9,3.9-1.7,7.6-1.4,9.5c0.4-0.1,0.7-0.3,0.9-0.4c2.7-1.7,2.6-5.9,2.6-6.6c0.2,0.6,0.3,1.1,0.3,1.6c0.3,4.1-3,7.2-4,8
		c-0.5-1.5-0.9-3.4-0.9-5.8c0-1.2,0.1-2.3,0.2-3.2c-0.2,0-0.5-0.1-0.8-0.3c-0.5-0.4-1.2-1.2-0.9-5.7c0.1-1.1,0.2-2.7,0.6-4.5
		c-1.2,1.8-3,4-5.4,6.1c-2.2,2-4.4,3.4-6.1,4.3c-0.2,0.4-0.3,0.8-0.5,1.2c-1.2,3.2-1.8,6.4-2,9.2c0.9,0,1.8,0,2.7,0
		c-0.4-1.5-0.8-4.3,0.1-7.5c0.4-1.4,1-2.6,1.5-3.5c0,2.5-0.1,4.9-0.1,7.4c0.2-0.1,0.4-0.3,0.7-0.5c2-1.7,2.1-3.9,3.2-7.1
		c0.3-0.9,0.8-2.2,1.6-3.7c0,0.2,0.1,0.6,0.2,1.2c0.4,4.8-3,9.5-4.2,11.3c-0.8,1.1-1.8,2.4-1.5,2.9c0.2,0.2,0.7,0.1,1,0
		c1.3-1.3,3.2-3.5,4.6-6.7c0.9-2.1,1.3-4,1.5-5.5c0.6,0,1.3,0,1.9,0c0.1,0.9,0.1,1.8,0.2,2.8c0.1,3.4,0.1,6.7-0.2,9.7
		c1,0.1,2,0.3,3,0.4c0.2-0.3,0.3-0.5,0.5-0.8c2.2-3.5,4.2-7.1,6-10.6c-0.4,1.5-0.9,3.2-1.6,4.9c-0.9,2.2-1.8,4.1-2.7,5.6
		c0.7,0,1.4,0,2.1,0c0.2-1.8,0.7-4.7,2.6-7.7c0.8-1.2,1.6-2.2,2.4-2.9c0.2,0.9,0.4,2.1,0.3,3.5c-0.1,2.3-0.8,4-1.3,5.1
		c1-1.2,1.9-2.4,2.9-3.6c-0.1-1.5-0.4-7.3,3.6-10.8c0.5-0.4,1.1-0.9,1.8-1.3c-0.9,1.1-1.9,2.7-2.7,4.8c-1.3,3.6-1.1,6.7-0.9,8.5
		c0.8-0.1,1.7-0.2,2.6-0.6c3.9-1.5,5.6-5.3,6-6.4c-1.2-1.3-2.3-2.6-3.5-3.9c-0.4,0.4-0.9,0.9-1.3,1.5c-1.4,1.8-1.9,3.7-2.1,4.9
		c0.4,0,0.9-0.1,1.4-0.4c2-0.9,2.6-3.1,2.7-3.5c0.2,0.4,0.2,0.7,0.2,1c0.1,1.9-1.9,3.8-4.9,5c-0.1-0.9-0.4-3.5,1.1-6.1
		c1-1.7,2.2-2.7,3-3.2c-0.5-0.9-2.2-4.6-0.9-9c0.7-2.2,1.9-3.8,2.7-4.6c-0.6,1.1-2.1,4.2-1.7,8.4c0.4,3.6,2,6.1,2.8,7.1
		c0.1-1.6,0.4-3.7,1.3-6c1.3-3.8,3.4-6.4,4.9-8c-0.9,1.6-1.9,3.5-2.7,5.8c-1.6,4.6-2,8.7-2,11.6c-0.2,0.4-0.4,0.7-0.5,1.1
		c-1.7,4,0.4,8.3,1.3,10c0.4-0.1,0.8-0.1,1.2-0.2c-0.8-1.8-1.6-4.2-1.8-7.2c-0.1-0.9,0-1.7,0-2.5c0.2,1,0.5,2.1,0.8,3.2
		c0.5,1.8,1,3.4,1.6,5c1.1-3.7,1.1-6.7,0.8-8.7c-0.5-3.2-1.7-4.9-1.2-7.6c0.4-2.3,1.8-4.1,2.9-5.2c-0.4,0.9-3.4,7.3-0.2,13.3
		c1.1,2,2.5,3.4,3.7,4.3c-0.3-1.6-0.5-4.4,0.4-7.7c0.7-2.5,1.7-4.4,2.6-5.6c-2.3-2.9-2.5-5-2.2-6.3C171.1,81,173.3,79.7,173.3,76.5z
		 M151.7,82c-0.4-1.1-0.4-1.9-0.3-2.4c0.2-1.6,1.1-2.6,1.8-3.4c0.4-0.5,0.8-0.9,1.1-1.1c1.2,0.3,1.6,0.8,1.7,1
		C156.6,77.4,154.9,79.8,151.7,82z M143.1,96.8c-1.7-1.1,0.5-7.4,0.7-7.8c0.9-2.5,2.7-5.7,3.7-5.4c0.2,0,0.3,0.2,0.4,0.4
		c0.4,0.7-0.8,2-1.3,2.6c-2.6,3.1-3.3,8.1-2.3,8.7c0.1,0.1,0.3,0.1,0.6,0c1.5-0.8,3.9-2.4,5.8-5.2c1.1-1.6,1.8-3.1,2.2-4.3
		c0.3,0.1,0.8,0.4,1,0.9C155.3,89.5,145.5,98.3,143.1,96.8z M158.9,87.3c-0.2,0.1-0.5,0.1-0.8,0.2c-0.2-1.2-0.5-4.3,1.4-7.1
		c0.5-0.7,1-1.3,1.5-1.7c-0.6,1.4-1.2,3-1.5,5c-0.1,0.6-0.2,1.2-0.2,1.8c1.2-1.6,2.1-2.8,2.6-3.6c0.2-0.3,0.6-0.9,1.4-1.5
		c0.2-0.2,0.4-0.3,0.6-0.4C163.5,81.4,162.3,86.1,158.9,87.3z"/>
	<path class="st11" d="M137.9,77.4c1.7-1.4,4.2-3.9,6.2-7.9c-0.3-0.1-0.7-0.3-1-0.4c-2.4,4.2-5.1,6-6.7,6.8
		c-0.4,0.2-3.8,1.9-4.5,1.1c-0.1-0.2-0.1-0.4-0.1-0.6c0.3-2.1,4.5-8.7,5.1-9.7c-1-0.8-2-1.7-3.1-2.5c-0.6,2.9-2.1,8.3-6.3,13.3
		c-1.9,2.2-3.9,3.8-5.6,4.9c0.5,0.1,1.3,0.3,2.2,0.4C130.7,83.5,136,79,137.9,77.4z"/>
	<path class="st11" d="M133.7,75.6c0.8-0.2,1.8-0.6,2.8-1.2c3-1.7,4.5-4.3,5.1-5.6c-1.1-0.5-2.2-0.9-3.4-1.4
		c-0.6,0.7-1.3,1.5-1.9,2.5C135.1,71.9,134.3,73.9,133.7,75.6z"/>
	<path class="st11" d="M126.8,91.1c1-0.5,2.2-1.4,3.4-2.8c2.3-2.7,2.8-5.7,2.9-6.9c-1.3,0.5-2.6,1.1-3.9,1.6c-0.2,0.5-0.3,1-0.5,1.5
		C128,86.8,127.4,89,126.8,91.1z"/>
	<path class="st11" d="M147.5,100.3c-0.3,0.4-0.7,0.9-1,1.5c-1.5,2.5-2,5-2.2,6.8c0.9-1.1,2-2.9,2.6-5.3
		C147.3,102.2,147.5,101.1,147.5,100.3z"/>
	<path class="st11" d="M133.4,102.5c-1.1,2.4-2.3,4.6-3.5,6.4c1.6,0,3.3,0,4.9,0c-0.3-2.6-0.6-5.2-0.8-7.8
		C133.8,101.5,133.6,102,133.4,102.5z"/>
	<path class="st11" d="M165.9,103c-0.3,1.9-0.8,3.6-1.4,4.8c0.8,0.1,1.7,0.3,2.5,0.4c0.2-1.8,0.4-3.6,0.7-5.4
		c-0.5-0.6-1.1-1.1-1.6-1.7C166.1,101.8,166,102.4,165.9,103z"/>
	<path class="st11" d="M154.8,103.9c-0.2,0.1-0.4,0.3-0.7,0.4c0.1,1.3,0.3,2.5,0.4,3.8c1.8,0,3.6,0,5.3,0.1c-0.5-2.4-1-4.7-1.5-7.1
		C157.4,102.1,156.2,103,154.8,103.9z"/>
	<path class="st11" d="M152.3,105.3c-0.4,1-0.8,1.9-1.2,2.9c0.7,0,1.4,0,2.1,0c-0.1-1-0.1-1.9-0.2-2.9
		C152.7,105.3,152.5,105.3,152.3,105.3z"/>
	<path class="st11" d="M149.2,105c-0.8,1.2-1.5,2.4-2.3,3.3c0.6,0,1.3,0,1.9,0c1.2-0.7,2-1.9,1.9-3.1c-0.1-0.8-0.5-1.3-0.7-1.6
		C149.8,104,149.5,104.5,149.2,105z"/>
	<path class="st11" d="M147.6,77c2.7-2.3,4-5,4.5-6.5c-0.3,0-0.5,0-0.8,0c-0.7,1.4-1.5,2.5-2,3.2c-0.6,0.9-3,4.2-3.9,3.7
		c-0.1,0-0.1-0.1-0.2-0.2c-0.6-0.8,0.4-2.2,1.9-5.4c0.5-1.1,0.9-2,0.8-2c-0.1-0.1-1.1,1.4-1.8,2.4c-1.6,2.7-2.1,5.3-2.3,7.1
		C144.9,78.9,146.3,78.2,147.6,77z"/>
	<path class="st11" d="M146.7,75.7c1.7-0.6,2.5-2.5,3.1-3.8c0.1-0.3,0.3-0.8,0.5-1.4c-0.4,0-0.9,0-1.3,0c-0.3,0.3-0.6,0.7-0.9,1.1
		c-1.1,1.5-1.6,3-1.9,4.2C146.3,75.8,146.5,75.8,146.7,75.7z"/>
	<path class="st11" d="M153.2,78.1c0,0.2-0.1,0.4,0,0.5c0.1,0,1.4-0.4,1.7-1.6c0.1-0.4,0-0.7,0-0.9C154.5,76.4,153.4,77,153.2,78.1z
		"/>
</g>
<path class="st3" d="M175.1,78.4c-0.3,0.3-3,2.6-2.7,5.7c0,0.4,0.2,1.9,1.4,3.1c3.1,3.1,10.6,0.6,14.8-1.8c1.4-0.8,2.5-1.7,3.2-2.3
	c-0.3,0-0.7,0.1-1.2,0.2c-7.3,1.1-8.5,1-9.6,0.7c-1-0.3-3.6-1-3.8-2.4c-0.6-3.4,11.7-10.5,18.9-6.9c0.7,0.3,1.1,0.7,1.4,0.9
	c0.5-2.6,0-4.2-0.5-5.1c-2.1-4.5-9.5-6.8-18.2-4.7c-0.8,0.9-1.8,2.2-2.6,3.9C174.5,73.4,174.9,76.9,175.1,78.4z"/>
<path d="M180.8,67.3c0.7-0.1,1.5,0.3,1.5,0.6c0,0.3-0.8,0.5-1.1,0.5c-0.7,0.1-1.3-0.1-1.7-0.3C179.6,68.1,180,67.4,180.8,67.3z"/>
<g>
	<path d="M64,143.9v-25.3h6.7l4,17.3l4-17.3h6.7v25.3h-4.1V124l-4.4,19.9h-4.3L68.1,124v19.9H64z"/>
	<path d="M99,138.1l4.2,0.8c-0.5,1.8-1.4,3.1-2.6,4c-1.2,0.9-2.6,1.4-4.4,1.4c-2.8,0-4.8-1-6.2-3.1c-1.1-1.7-1.6-3.8-1.6-6.3
		c0-3,0.7-5.4,2.1-7.1c1.4-1.7,3.1-2.6,5.3-2.6c2.4,0,4.3,0.9,5.6,2.7c1.4,1.8,2,4.6,2,8.3H92.8c0,1.4,0.4,2.6,1,3.4
		c0.7,0.8,1.5,1.2,2.4,1.2c0.7,0,1.2-0.2,1.7-0.6C98.4,139.7,98.7,139,99,138.1z M99.2,133.2c0-1.4-0.3-2.5-0.9-3.2
		s-1.3-1.1-2.2-1.1c-0.9,0-1.7,0.4-2.3,1.2c-0.6,0.8-0.9,1.8-0.9,3.1H99.2z"/>
	<path d="M104.8,143.9l5.8-9.4l-5.5-8.9h5.2l2.8,5l3-5h5l-5.4,8.7l5.9,9.7h-5.2l-3.3-5.7l-3.3,5.7H104.8z"/>
	<path d="M124,123.1v-4.5h4.2v4.5H124z M124,143.9v-18.3h4.2v18.3H124z"/>
</g>
<g>
	<path d="M224.7,144.2l-0.3-1.9h-0.1c-1.1,1.5-2.7,2.3-4.6,2.3c-3.2,0-5.3-2.7-5.3-5.8c0-5,4-7.2,9.5-7.2v-0.3
		c0-0.6-0.1-1.2-0.5-1.6c-0.5-0.6-1.5-1.3-2.4-0.9c-0.8,0.4-1.2,1.5-0.8,2.5c-1.6,0-3.1,0-4.7,0c0-0.2,0-4,3.2-5.9
		c0.1-0.1,2.7-1.6,5.6-0.6c3,1,5,4.3,4.8,8.2v6.8c0,1.7,0.1,3.4,0.3,4.5H224.7z M224,135.1c-2.4,0-4.6,0.7-4.6,3.1
		c0,1.6,0.9,2.4,2,2.4c1.1,0,2.2-0.8,2.5-2c0.1-0.3,0.1-0.6,0.1-1V135.1z"/>
	<path d="M232.7,118.1h5.2v26.1h-5.2V118.1z"/>
	<g>
		<rect x="241.5" y="124.6" width="5.2" height="19.7"/>
		<rect x="241.5" y="118.1" width="5.2" height="4.7"/>
	</g>
	<g>
		<path d="M207.4,134.4c1.6,0,3.2,0,4.8,0c0,0.4-0.2,6-2.7,8.5c-0.8,0.8-1.7,1.3-1.7,1.3c-1,0.5-2.2,0.8-3.4,0.8
			c-2.6,0-4.7-1.2-6.3-3.5c-1.7-2.4-2.5-5.6-2.5-9.7c0-4.3,0.8-7.7,2.5-10.1c1.7-2.4,3.8-3.6,6.6-3.6c1.1,0,2.2,0.2,3.1,0.7
			c1.5,0.7,2.3,1.7,2.6,2.2c2,2.5,1.8,5.5,1.7,6.4c-1.6,0-3.2,0-4.9,0c0-0.3,0-2.7-0.8-3.9c-0.1-0.1-0.3-0.4-0.7-0.6
			c-0.5-0.3-0.9-0.2-1.3-0.2c-1.4,0-2.6,0.7-3.5,2.1c-0.9,1.4-1.3,3.6-1.3,6.7c0,3.3,0.4,5.6,1.3,7c0.9,1.4,2,2.1,3.4,2.1
			c0.3,0,0.7,0,1-0.2c0.5-0.2,0.8-0.6,0.9-0.8C206.7,138.7,207.2,136.9,207.4,134.4z"/>
	</g>
</g>
<polygon points="169.7,110.4 167,113.5 172.4,116.5 175.7,111.3 "/>
<polygon points="165.1,115.6 171,118.1 168.6,121 163,118.3 "/>
<polygon points="161.4,120.7 167,123.1 164.6,126 159.2,123.3 "/>
<polygon points="157.2,125.6 151.3,133 156.7,135.6 163,128.1 "/>
<polygon points="149.5,135.1 154.9,137.7 153.4,139.6 147.8,137.4 "/>
<polygon points="144.7,141.1 150.1,143.6 151.4,141.6 146,139.3 "/>
<polygon points="137.7,150.1 142.8,143.6 148,145.5 144.7,149.9 "/>
<path class="st9" d="M307.9,108.9l-13.1-31.7l-68.5,5.9c-1-4.3-2.6-8.4-4.7-12.4l47.2-25.8l-30.1-20.9l-29.6,30.5
	c-2.9-2.7-6.1-5.1-9.5-7.3l19.9-32.6l-31-9.3l-10.1,32.6c-3.4-0.9-6.9-1.6-10.6-2.1L173.2,3h-33l5.5,32.8c-3.5,0.5-7,1.2-10.4,2.1
	L124.8,4.9l-31.5,9.8L114,47.1c-3.2,2.1-6.3,4.4-9,6.9L75.1,23.3L45.4,46l46.4,24.9c-2,3.8-3.5,7.8-4.5,11.9l-68-6.8L4.2,105.9v4.8
	h303.5L307.9,108.9z"/>
</svg>
